<svg width="531" height="541" viewBox="0 0 531 541" fill="none" xmlns="http://www.w3.org/2000/svg">
<path d="M60.5788 1.82306C229.908 12.9721 372.774 62.2983 512.258 174.861C521.87 182.618 527.488 190.158 529.021 198.666C530.556 207.177 528.045 216.89 520.855 229.087C443.384 360.501 333.748 459.437 145.183 533.688C130.126 539.617 120.322 540.528 112.858 537.22C105.365 533.9 99.931 526.208 93.9574 514.068C50.978 426.722 22.7794 355.088 9.91967 281.418C-2.93797 207.761 -0.471883 132.006 17.9668 36.4171C19.507 28.4324 21.049 22.1658 22.966 17.2752C24.8796 12.3935 27.1438 8.94391 30.0939 6.5348C36.0062 1.70663 44.9847 0.796312 60.5788 1.82306Z" stroke="#C41440" stroke-width="2"/>
</svg>
