<svg width="172" height="166" viewBox="0 0 172 166" fill="none" xmlns="http://www.w3.org/2000/svg">
<g opacity="0.5">
<path d="M2.20825 139.622C11.6759 87.4496 32.0452 44.8772 71.9231 5.58219C74.6269 2.91793 77.0253 1.56763 79.4892 1.40828C81.9565 1.24874 84.7273 2.26802 88.2076 4.89425C126.216 33.5756 153.024 71.0758 169.389 132.26C170.689 137.118 170.558 139.965 169.41 141.92C168.247 143.901 165.883 145.253 161.894 146.679C133.208 156.94 109.985 163.143 86.6984 164.52C63.4236 165.896 40.0224 162.453 10.9885 153.334C8.56778 152.574 6.72155 151.887 5.32528 151.147C3.9374 150.411 3.05257 149.654 2.49261 148.782C1.3642 147.026 1.32968 144.463 2.20825 139.622Z" stroke="white" stroke-width="2"/>
<path d="M2.20825 139.622C11.6759 87.4496 32.0452 44.8772 71.9231 5.58219C74.6269 2.91793 77.0253 1.56763 79.4892 1.40828C81.9565 1.24874 84.7273 2.26802 88.2076 4.89425C126.216 33.5756 153.024 71.0758 169.389 132.26C170.689 137.118 170.558 139.965 169.41 141.92C168.247 143.901 165.883 145.253 161.894 146.679C133.208 156.94 109.985 163.143 86.6984 164.52C63.4236 165.896 40.0224 162.453 10.9885 153.334C8.56778 152.574 6.72155 151.887 5.32528 151.147C3.9374 150.411 3.05257 149.654 2.49261 148.782C1.3642 147.026 1.32968 144.463 2.20825 139.622Z" stroke="white" stroke-width="2"/>
</g>
</svg>
