<svg width="201" height="201" viewBox="0 0 201 201" fill="none" xmlns="http://www.w3.org/2000/svg">
<path d="M9.4942 53.8564C62.1465 18.1124 115.769 -0.236361 182.973 0.895561C187.592 0.973381 190.958 1.90595 193.342 4.04048C195.727 6.17612 197.218 9.59443 197.902 14.848C205.287 71.5687 195.675 126.101 157.023 191.54C153.939 196.761 151.271 199.253 148.351 199.983C145.416 200.717 142.071 199.715 137.503 197.501C104.645 181.573 79.7915 166.889 59.0077 148.07C38.2284 129.255 21.4937 106.286 4.90666 73.7603C3.5215 71.0441 2.53663 68.8426 1.97919 66.9648C1.42309 65.0916 1.30205 63.5716 1.6129 62.2062C2.23635 59.4678 4.63965 57.152 9.4942 53.8564Z" fill="white" stroke="black"/>
</svg>
